# xmcd CD database file
#
# Track frame offsets:
#	150
#	12841
#	26423
#	38514
#	53015
#	65435
#	77839
#	92554
#	106673
#	120640
#	134633
#	146282
#	158438
#	171013
#	184192
#	197477
#	209701
#	223732
#	236047
#	247061
#	258870
#	271671
#	285146
#	298185
#	311419
#
# Disc length: 4318 seconds
#
# Revision: 0
# Processed by: cddbd v1.5.2PL0 Copyright (c) Steve Scherf et al.
# Submitted via: CDex 1.70beta2
#
DISCID=5810dc19
DTITLE=Duke Ellington - The Real...Duke Ellington - CD3
DYEAR=2012
DGENRE=Jazz
TTITLE0=The New Birmingham Breakdown
TTITLE1=The New East St.Louis Toodle - O
TTITLE2=Caravan
TTITLE3=Azure
TTITLE4=Chatterbox
TTITLE5=Diminuendo In Blue
TTITLE6=Crescendo In Blue
TTITLE7=Harmony In Harlem
TTITLE8=Dusk On The Desert
TTITLE9=Steppin Into Swing Society
TTITLE10=Prologue To Black And Tan Fantasy
TTITLE11=The New Black And Tan Fantasy
TTITLE12=Ridin On A Blue Note
TTITLE13=Lost In Meditation
TTITLE14=The Gal From Joes
TTITLE15=Scrounch
TTITLE16=I Let A Song Go Out Of My Heart
TTITLE17=Braggin'In Brass
TTITLE18=Carnival In Caroline
TTITLE19=I'm Slappin Seventh Avenue
TTITLE20=Dinah's In A Jam
TTITLE21=Rose Of The Rio Grande
TTITLE22=Pyramid
TTITLE23=A Gypsy Without A Song
TTITLE24=Stevedore's Serenade
EXTD=YEAR: 2012
EXTT0=
EXTT1=
EXTT2=
EXTT3=
EXTT4=
EXTT5=
EXTT6=
EXTT7=
EXTT8=
EXTT9=
EXTT10=
EXTT11=
EXTT12=
EXTT13=
EXTT14=
EXTT15=
EXTT16=
EXTT17=
EXTT18=
EXTT19=
EXTT20=
EXTT21=
EXTT22=
EXTT23=
EXTT24=
PLAYORDER=
